<mxfile host="app.diagrams.net" modified="2024-06-20T04:56:26.960Z" agent="Mozilla/5.0 (Windows NT 10.0; Win64; x64) AppleWebKit/537.36 (KHTML, like Gecko) Chrome/126.0.0.0 Safari/537.36" etag="3FyZUQuhOupQT7syhzVO" version="24.5.3" type="github">
  <diagram name="Page-1" id="dcpmSnTnDByRMOu5e8hp">
    <mxGraphModel dx="1222" dy="705" grid="1" gridSize="10" guides="1" tooltips="1" connect="1" arrows="1" fold="1" page="1" pageScale="1" pageWidth="827" pageHeight="1169" math="0" shadow="0">
      <root>
        <mxCell id="0" />
        <mxCell id="1" parent="0" />
        <mxCell id="gDm46MFRfBs7ORozFd5L-6" style="edgeStyle=orthogonalEdgeStyle;rounded=0;orthogonalLoop=1;jettySize=auto;html=1;" edge="1" parent="1">
          <mxGeometry relative="1" as="geometry">
            <mxPoint x="290" y="230" as="targetPoint" />
            <mxPoint x="230" y="230.07692307692298" as="sourcePoint" />
          </mxGeometry>
        </mxCell>
        <mxCell id="gDm46MFRfBs7ORozFd5L-8" style="edgeStyle=orthogonalEdgeStyle;rounded=0;orthogonalLoop=1;jettySize=auto;html=1;" edge="1" parent="1" source="gDm46MFRfBs7ORozFd5L-7" target="gDm46MFRfBs7ORozFd5L-9">
          <mxGeometry relative="1" as="geometry">
            <mxPoint x="540" y="230" as="targetPoint" />
          </mxGeometry>
        </mxCell>
        <mxCell id="gDm46MFRfBs7ORozFd5L-7" value="self.account.deposit(account)" style="rounded=1;whiteSpace=wrap;html=1;absoluteArcSize=1;arcSize=14;strokeWidth=2;" vertex="1" parent="1">
          <mxGeometry x="290" y="200" width="180" height="60" as="geometry" />
        </mxCell>
        <mxCell id="gDm46MFRfBs7ORozFd5L-11" style="edgeStyle=orthogonalEdgeStyle;rounded=0;orthogonalLoop=1;jettySize=auto;html=1;exitX=0.5;exitY=1;exitDx=0;exitDy=0;exitPerimeter=0;entryX=0.5;entryY=0;entryDx=0;entryDy=0;" edge="1" parent="1" source="gDm46MFRfBs7ORozFd5L-9">
          <mxGeometry relative="1" as="geometry">
            <mxPoint x="560" y="320" as="targetPoint" />
          </mxGeometry>
        </mxCell>
        <mxCell id="gDm46MFRfBs7ORozFd5L-13" style="edgeStyle=orthogonalEdgeStyle;rounded=0;orthogonalLoop=1;jettySize=auto;html=1;" edge="1" parent="1" source="gDm46MFRfBs7ORozFd5L-9">
          <mxGeometry relative="1" as="geometry">
            <mxPoint x="560" y="320" as="targetPoint" />
          </mxGeometry>
        </mxCell>
        <mxCell id="gDm46MFRfBs7ORozFd5L-17" value="False" style="edgeLabel;html=1;align=center;verticalAlign=middle;resizable=0;points=[];" vertex="1" connectable="0" parent="gDm46MFRfBs7ORozFd5L-13">
          <mxGeometry x="-0.0783" y="2" relative="1" as="geometry">
            <mxPoint as="offset" />
          </mxGeometry>
        </mxCell>
        <mxCell id="gDm46MFRfBs7ORozFd5L-18" style="edgeStyle=orthogonalEdgeStyle;rounded=0;orthogonalLoop=1;jettySize=auto;html=1;exitX=1;exitY=0.5;exitDx=0;exitDy=0;exitPerimeter=0;" edge="1" parent="1" source="gDm46MFRfBs7ORozFd5L-9">
          <mxGeometry relative="1" as="geometry">
            <mxPoint x="650" y="230" as="targetPoint" />
          </mxGeometry>
        </mxCell>
        <mxCell id="gDm46MFRfBs7ORozFd5L-25" value="True" style="edgeLabel;html=1;align=center;verticalAlign=middle;resizable=0;points=[];" vertex="1" connectable="0" parent="gDm46MFRfBs7ORozFd5L-18">
          <mxGeometry x="-0.0668" relative="1" as="geometry">
            <mxPoint as="offset" />
          </mxGeometry>
        </mxCell>
        <mxCell id="gDm46MFRfBs7ORozFd5L-9" value="amount&amp;gt;0?" style="strokeWidth=2;html=1;shape=mxgraph.flowchart.decision;whiteSpace=wrap;" vertex="1" parent="1">
          <mxGeometry x="510" y="180" width="100" height="100" as="geometry" />
        </mxCell>
        <mxCell id="gDm46MFRfBs7ORozFd5L-14" value="Return False" style="rounded=0;whiteSpace=wrap;html=1;" vertex="1" parent="1">
          <mxGeometry x="500" y="320" width="120" height="60" as="geometry" />
        </mxCell>
        <mxCell id="gDm46MFRfBs7ORozFd5L-15" value="End" style="strokeWidth=2;html=1;shape=mxgraph.flowchart.terminator;whiteSpace=wrap;" vertex="1" parent="1">
          <mxGeometry x="855" y="320" width="100" height="60" as="geometry" />
        </mxCell>
        <mxCell id="gDm46MFRfBs7ORozFd5L-16" style="edgeStyle=orthogonalEdgeStyle;rounded=0;orthogonalLoop=1;jettySize=auto;html=1;entryX=0;entryY=0.5;entryDx=0;entryDy=0;entryPerimeter=0;" edge="1" parent="1" source="gDm46MFRfBs7ORozFd5L-14" target="gDm46MFRfBs7ORozFd5L-15">
          <mxGeometry relative="1" as="geometry" />
        </mxCell>
        <mxCell id="gDm46MFRfBs7ORozFd5L-23" style="edgeStyle=orthogonalEdgeStyle;rounded=0;orthogonalLoop=1;jettySize=auto;html=1;entryX=0;entryY=0.5;entryDx=0;entryDy=0;" edge="1" parent="1" source="gDm46MFRfBs7ORozFd5L-19" target="gDm46MFRfBs7ORozFd5L-21">
          <mxGeometry relative="1" as="geometry" />
        </mxCell>
        <mxCell id="gDm46MFRfBs7ORozFd5L-19" value="balance + account" style="rounded=0;whiteSpace=wrap;html=1;" vertex="1" parent="1">
          <mxGeometry x="650" y="200" width="130" height="60" as="geometry" />
        </mxCell>
        <mxCell id="gDm46MFRfBs7ORozFd5L-21" value="Return True" style="rounded=0;whiteSpace=wrap;html=1;" vertex="1" parent="1">
          <mxGeometry x="840" y="200" width="130" height="60" as="geometry" />
        </mxCell>
        <mxCell id="gDm46MFRfBs7ORozFd5L-24" style="edgeStyle=orthogonalEdgeStyle;rounded=0;orthogonalLoop=1;jettySize=auto;html=1;entryX=0.5;entryY=0;entryDx=0;entryDy=0;entryPerimeter=0;" edge="1" parent="1" source="gDm46MFRfBs7ORozFd5L-21" target="gDm46MFRfBs7ORozFd5L-15">
          <mxGeometry relative="1" as="geometry" />
        </mxCell>
        <mxCell id="gDm46MFRfBs7ORozFd5L-26" value="Deposit Begin" style="strokeWidth=2;html=1;shape=mxgraph.flowchart.terminator;whiteSpace=wrap;" vertex="1" parent="1">
          <mxGeometry x="130" y="200" width="100" height="60" as="geometry" />
        </mxCell>
        <mxCell id="gDm46MFRfBs7ORozFd5L-28" style="edgeStyle=orthogonalEdgeStyle;rounded=0;orthogonalLoop=1;jettySize=auto;html=1;" edge="1" parent="1" source="gDm46MFRfBs7ORozFd5L-29" target="gDm46MFRfBs7ORozFd5L-35">
          <mxGeometry relative="1" as="geometry">
            <mxPoint x="550" y="535" as="targetPoint" />
          </mxGeometry>
        </mxCell>
        <mxCell id="gDm46MFRfBs7ORozFd5L-29" value="self.account.deposit(account)" style="rounded=1;whiteSpace=wrap;html=1;absoluteArcSize=1;arcSize=14;strokeWidth=2;" vertex="1" parent="1">
          <mxGeometry x="270" y="487.5" width="180" height="60" as="geometry" />
        </mxCell>
        <mxCell id="gDm46MFRfBs7ORozFd5L-30" style="edgeStyle=orthogonalEdgeStyle;rounded=0;orthogonalLoop=1;jettySize=auto;html=1;exitX=0.5;exitY=1;exitDx=0;exitDy=0;exitPerimeter=0;entryX=0.5;entryY=0;entryDx=0;entryDy=0;" edge="1" parent="1" source="gDm46MFRfBs7ORozFd5L-35">
          <mxGeometry relative="1" as="geometry">
            <mxPoint x="570" y="625" as="targetPoint" />
          </mxGeometry>
        </mxCell>
        <mxCell id="gDm46MFRfBs7ORozFd5L-31" style="edgeStyle=orthogonalEdgeStyle;rounded=0;orthogonalLoop=1;jettySize=auto;html=1;" edge="1" parent="1" source="gDm46MFRfBs7ORozFd5L-35">
          <mxGeometry relative="1" as="geometry">
            <mxPoint x="570" y="625" as="targetPoint" />
          </mxGeometry>
        </mxCell>
        <mxCell id="gDm46MFRfBs7ORozFd5L-32" value="False" style="edgeLabel;html=1;align=center;verticalAlign=middle;resizable=0;points=[];" vertex="1" connectable="0" parent="gDm46MFRfBs7ORozFd5L-31">
          <mxGeometry x="-0.0783" y="2" relative="1" as="geometry">
            <mxPoint as="offset" />
          </mxGeometry>
        </mxCell>
        <mxCell id="gDm46MFRfBs7ORozFd5L-33" style="edgeStyle=orthogonalEdgeStyle;rounded=0;orthogonalLoop=1;jettySize=auto;html=1;exitX=1;exitY=0.5;exitDx=0;exitDy=0;exitPerimeter=0;entryX=0;entryY=0.5;entryDx=0;entryDy=0;" edge="1" parent="1" source="gDm46MFRfBs7ORozFd5L-35" target="gDm46MFRfBs7ORozFd5L-40">
          <mxGeometry relative="1" as="geometry">
            <mxPoint x="660" y="535" as="targetPoint" />
          </mxGeometry>
        </mxCell>
        <mxCell id="gDm46MFRfBs7ORozFd5L-34" value="True" style="edgeLabel;html=1;align=center;verticalAlign=middle;resizable=0;points=[];" vertex="1" connectable="0" parent="gDm46MFRfBs7ORozFd5L-33">
          <mxGeometry x="-0.0668" relative="1" as="geometry">
            <mxPoint as="offset" />
          </mxGeometry>
        </mxCell>
        <mxCell id="gDm46MFRfBs7ORozFd5L-35" value="0&amp;lt;amount&amp;lt;balance&amp;gt;" style="strokeWidth=2;html=1;shape=mxgraph.flowchart.decision;whiteSpace=wrap;" vertex="1" parent="1">
          <mxGeometry x="500" y="450" width="120" height="135" as="geometry" />
        </mxCell>
        <mxCell id="gDm46MFRfBs7ORozFd5L-36" value="Return False" style="rounded=0;whiteSpace=wrap;html=1;" vertex="1" parent="1">
          <mxGeometry x="510" y="625" width="120" height="60" as="geometry" />
        </mxCell>
        <mxCell id="gDm46MFRfBs7ORozFd5L-37" value="End" style="strokeWidth=2;html=1;shape=mxgraph.flowchart.terminator;whiteSpace=wrap;" vertex="1" parent="1">
          <mxGeometry x="885" y="625" width="100" height="60" as="geometry" />
        </mxCell>
        <mxCell id="gDm46MFRfBs7ORozFd5L-39" style="edgeStyle=orthogonalEdgeStyle;rounded=0;orthogonalLoop=1;jettySize=auto;html=1;entryX=0;entryY=0.5;entryDx=0;entryDy=0;" edge="1" parent="1" source="gDm46MFRfBs7ORozFd5L-40" target="gDm46MFRfBs7ORozFd5L-41">
          <mxGeometry relative="1" as="geometry" />
        </mxCell>
        <mxCell id="gDm46MFRfBs7ORozFd5L-40" value="balance - account" style="rounded=0;whiteSpace=wrap;html=1;" vertex="1" parent="1">
          <mxGeometry x="690" y="487.5" width="130" height="60" as="geometry" />
        </mxCell>
        <mxCell id="gDm46MFRfBs7ORozFd5L-41" value="Return True" style="rounded=0;whiteSpace=wrap;html=1;" vertex="1" parent="1">
          <mxGeometry x="870" y="487.5" width="130" height="60" as="geometry" />
        </mxCell>
        <mxCell id="gDm46MFRfBs7ORozFd5L-42" style="edgeStyle=orthogonalEdgeStyle;rounded=0;orthogonalLoop=1;jettySize=auto;html=1;entryX=0.5;entryY=0;entryDx=0;entryDy=0;entryPerimeter=0;" edge="1" parent="1" source="gDm46MFRfBs7ORozFd5L-41" target="gDm46MFRfBs7ORozFd5L-37">
          <mxGeometry relative="1" as="geometry" />
        </mxCell>
        <mxCell id="gDm46MFRfBs7ORozFd5L-44" style="edgeStyle=orthogonalEdgeStyle;rounded=0;orthogonalLoop=1;jettySize=auto;html=1;entryX=0;entryY=0.5;entryDx=0;entryDy=0;" edge="1" parent="1" source="gDm46MFRfBs7ORozFd5L-43" target="gDm46MFRfBs7ORozFd5L-29">
          <mxGeometry relative="1" as="geometry" />
        </mxCell>
        <mxCell id="gDm46MFRfBs7ORozFd5L-43" value="Withdraw Begin" style="strokeWidth=2;html=1;shape=mxgraph.flowchart.terminator;whiteSpace=wrap;" vertex="1" parent="1">
          <mxGeometry x="120" y="487.5" width="100" height="60" as="geometry" />
        </mxCell>
        <mxCell id="gDm46MFRfBs7ORozFd5L-45" style="edgeStyle=orthogonalEdgeStyle;rounded=0;orthogonalLoop=1;jettySize=auto;html=1;" edge="1" parent="1" source="gDm46MFRfBs7ORozFd5L-46" target="gDm46MFRfBs7ORozFd5L-61">
          <mxGeometry relative="1" as="geometry">
            <mxPoint x="565" y="1205.5" as="targetPoint" />
          </mxGeometry>
        </mxCell>
        <mxCell id="gDm46MFRfBs7ORozFd5L-46" value="self.bank.create_account(number, name)" style="rounded=1;whiteSpace=wrap;html=1;absoluteArcSize=1;arcSize=14;strokeWidth=2;" vertex="1" parent="1">
          <mxGeometry x="230" y="1175" width="285" height="60" as="geometry" />
        </mxCell>
        <mxCell id="gDm46MFRfBs7ORozFd5L-50" style="edgeStyle=orthogonalEdgeStyle;rounded=0;orthogonalLoop=1;jettySize=auto;html=1;exitX=1;exitY=0.5;exitDx=0;exitDy=0;exitPerimeter=0;entryX=0;entryY=0.5;entryDx=0;entryDy=0;" edge="1" parent="1" target="gDm46MFRfBs7ORozFd5L-56">
          <mxGeometry relative="1" as="geometry">
            <mxPoint x="725" y="1222.5" as="targetPoint" />
            <mxPoint x="685" y="1205.5" as="sourcePoint" />
          </mxGeometry>
        </mxCell>
        <mxCell id="gDm46MFRfBs7ORozFd5L-51" value="True" style="edgeLabel;html=1;align=center;verticalAlign=middle;resizable=0;points=[];" vertex="1" connectable="0" parent="gDm46MFRfBs7ORozFd5L-50">
          <mxGeometry x="-0.0668" relative="1" as="geometry">
            <mxPoint as="offset" />
          </mxGeometry>
        </mxCell>
        <mxCell id="gDm46MFRfBs7ORozFd5L-52" value="Return False" style="rounded=0;whiteSpace=wrap;html=1;" vertex="1" parent="1">
          <mxGeometry x="575" y="1335" width="120" height="60" as="geometry" />
        </mxCell>
        <mxCell id="gDm46MFRfBs7ORozFd5L-53" value="End" style="strokeWidth=2;html=1;shape=mxgraph.flowchart.terminator;whiteSpace=wrap;" vertex="1" parent="1">
          <mxGeometry x="950" y="1335" width="100" height="60" as="geometry" />
        </mxCell>
        <mxCell id="gDm46MFRfBs7ORozFd5L-54" style="edgeStyle=orthogonalEdgeStyle;rounded=0;orthogonalLoop=1;jettySize=auto;html=1;entryX=0;entryY=0.5;entryDx=0;entryDy=0;entryPerimeter=0;" edge="1" parent="1" source="gDm46MFRfBs7ORozFd5L-52" target="gDm46MFRfBs7ORozFd5L-53">
          <mxGeometry relative="1" as="geometry" />
        </mxCell>
        <mxCell id="gDm46MFRfBs7ORozFd5L-55" style="edgeStyle=orthogonalEdgeStyle;rounded=0;orthogonalLoop=1;jettySize=auto;html=1;entryX=0;entryY=0.5;entryDx=0;entryDy=0;" edge="1" parent="1" source="gDm46MFRfBs7ORozFd5L-56" target="gDm46MFRfBs7ORozFd5L-57">
          <mxGeometry relative="1" as="geometry" />
        </mxCell>
        <mxCell id="gDm46MFRfBs7ORozFd5L-56" value="create account" style="rounded=0;whiteSpace=wrap;html=1;" vertex="1" parent="1">
          <mxGeometry x="755" y="1175" width="130" height="60" as="geometry" />
        </mxCell>
        <mxCell id="gDm46MFRfBs7ORozFd5L-57" value="Return True" style="rounded=0;whiteSpace=wrap;html=1;" vertex="1" parent="1">
          <mxGeometry x="935" y="1175" width="130" height="60" as="geometry" />
        </mxCell>
        <mxCell id="gDm46MFRfBs7ORozFd5L-58" style="edgeStyle=orthogonalEdgeStyle;rounded=0;orthogonalLoop=1;jettySize=auto;html=1;entryX=0.5;entryY=0;entryDx=0;entryDy=0;entryPerimeter=0;" edge="1" parent="1" source="gDm46MFRfBs7ORozFd5L-57" target="gDm46MFRfBs7ORozFd5L-53">
          <mxGeometry relative="1" as="geometry" />
        </mxCell>
        <mxCell id="gDm46MFRfBs7ORozFd5L-59" style="edgeStyle=orthogonalEdgeStyle;rounded=0;orthogonalLoop=1;jettySize=auto;html=1;entryX=0;entryY=0.5;entryDx=0;entryDy=0;" edge="1" parent="1" target="gDm46MFRfBs7ORozFd5L-46">
          <mxGeometry relative="1" as="geometry">
            <mxPoint x="190" y="1205" as="sourcePoint" />
          </mxGeometry>
        </mxCell>
        <mxCell id="gDm46MFRfBs7ORozFd5L-60" value="Create Account Begin" style="strokeWidth=2;html=1;shape=mxgraph.flowchart.terminator;whiteSpace=wrap;" vertex="1" parent="1">
          <mxGeometry x="90" y="1169" width="100" height="60" as="geometry" />
        </mxCell>
        <mxCell id="gDm46MFRfBs7ORozFd5L-63" style="edgeStyle=orthogonalEdgeStyle;rounded=0;orthogonalLoop=1;jettySize=auto;html=1;" edge="1" parent="1" source="gDm46MFRfBs7ORozFd5L-61" target="gDm46MFRfBs7ORozFd5L-52">
          <mxGeometry relative="1" as="geometry" />
        </mxCell>
        <mxCell id="gDm46MFRfBs7ORozFd5L-64" value="False" style="edgeLabel;html=1;align=center;verticalAlign=middle;resizable=0;points=[];" vertex="1" connectable="0" parent="gDm46MFRfBs7ORozFd5L-63">
          <mxGeometry x="0.1262" y="-4" relative="1" as="geometry">
            <mxPoint as="offset" />
          </mxGeometry>
        </mxCell>
        <mxCell id="gDm46MFRfBs7ORozFd5L-61" value="number not in accounts?" style="strokeWidth=2;html=1;shape=mxgraph.flowchart.decision;whiteSpace=wrap;" vertex="1" parent="1">
          <mxGeometry x="575" y="1137.5" width="120" height="135" as="geometry" />
        </mxCell>
        <mxCell id="gDm46MFRfBs7ORozFd5L-65" style="edgeStyle=orthogonalEdgeStyle;rounded=0;orthogonalLoop=1;jettySize=auto;html=1;" edge="1" parent="1" source="gDm46MFRfBs7ORozFd5L-66" target="gDm46MFRfBs7ORozFd5L-76">
          <mxGeometry relative="1" as="geometry">
            <mxPoint x="459.9999999999998" y="900" as="targetPoint" />
          </mxGeometry>
        </mxCell>
        <mxCell id="gDm46MFRfBs7ORozFd5L-66" value="self.account.get_balance" style="rounded=1;whiteSpace=wrap;html=1;absoluteArcSize=1;arcSize=14;strokeWidth=2;" vertex="1" parent="1">
          <mxGeometry x="230" y="870" width="180" height="60" as="geometry" />
        </mxCell>
        <mxCell id="gDm46MFRfBs7ORozFd5L-73" value="End" style="strokeWidth=2;html=1;shape=mxgraph.flowchart.terminator;whiteSpace=wrap;" vertex="1" parent="1">
          <mxGeometry x="665" y="870" width="100" height="60" as="geometry" />
        </mxCell>
        <mxCell id="gDm46MFRfBs7ORozFd5L-81" value="" style="edgeStyle=orthogonalEdgeStyle;rounded=0;orthogonalLoop=1;jettySize=auto;html=1;" edge="1" parent="1" source="gDm46MFRfBs7ORozFd5L-76" target="gDm46MFRfBs7ORozFd5L-73">
          <mxGeometry relative="1" as="geometry" />
        </mxCell>
        <mxCell id="gDm46MFRfBs7ORozFd5L-76" value="Return balance" style="rounded=0;whiteSpace=wrap;html=1;" vertex="1" parent="1">
          <mxGeometry x="470" y="870" width="130" height="60" as="geometry" />
        </mxCell>
        <mxCell id="gDm46MFRfBs7ORozFd5L-78" style="edgeStyle=orthogonalEdgeStyle;rounded=0;orthogonalLoop=1;jettySize=auto;html=1;entryX=0;entryY=0.5;entryDx=0;entryDy=0;" edge="1" parent="1" source="gDm46MFRfBs7ORozFd5L-79" target="gDm46MFRfBs7ORozFd5L-66">
          <mxGeometry relative="1" as="geometry" />
        </mxCell>
        <mxCell id="gDm46MFRfBs7ORozFd5L-79" value="Balance Begin" style="strokeWidth=2;html=1;shape=mxgraph.flowchart.terminator;whiteSpace=wrap;" vertex="1" parent="1">
          <mxGeometry x="80" y="870" width="100" height="60" as="geometry" />
        </mxCell>
      </root>
    </mxGraphModel>
  </diagram>
</mxfile>
